<?xml version="1.0" encoding="UTF-8"?>
<svg version="1.1" xmlns="http://www.w3.org/2000/svg" viewBox="150 288 979 148">
<path d="M0 0 C422.4 0 844.8 0 1280 0 C1280 237.6 1280 475.2 1280 720 C857.6 720 435.2 720 0 720 C0 482.4 0 244.8 0 0 Z " fill="#2A2A2A" transform="translate(0,0)"/>
<path d="M0 0 C9.83062402 7.11189833 16.66091843 17.28675483 19.1875 29.25 C20.40506514 45.35506616 18.69970049 58.97472043 8.4375 71.9375 C0.12284857 81.0751753 -12.36425147 86.55310791 -24.56640625 87.453125 C-40.23889424 87.71469643 -52.11455086 83.36846333 -63.515625 72.7109375 C-73.39896344 62.12164632 -76.25639143 49.39152204 -76.0234375 35.328125 C-75.5725422 23.29311724 -70.04333524 12.87277978 -61.8125 4.25 C-43.92297628 -11.12803551 -19.96936338 -12.11700354 0 0 Z " fill="#0F4B7F" transform="translate(468.8125,318.75)"/>
<path d="M0 0 C1.32 0 2.64 0 4 0 C4 1.65 4 3.3 4 5 C4.97839844 5.09796875 5.95679688 5.1959375 6.96484375 5.296875 C14.58374872 6.16589464 21.2423709 7.19412339 28 11 C28.79664063 11.42152344 29.59328125 11.84304688 30.4140625 12.27734375 C45.85484284 20.90601512 55.71611157 33.63112422 60.75 50.515625 C61.86940007 55.08650861 62.19983502 59.30387693 62 64 C63.98 64 65.96 64 68 64 C68 65.32 68 66.64 68 68 C66.02 68 64.04 68 62 68 C61.98582031 68.71542969 61.97164062 69.43085938 61.95703125 70.16796875 C61.19580199 86.07148821 53.93636786 100.03152864 42.44921875 110.93359375 C31.64436254 120.04965266 18.3333891 126.30442596 4 126 C4 127.98 4 129.96 4 132 C2.68 132 1.36 132 0 132 C0 130.02 0 128.04 0 126 C-1.18142578 125.97873047 -1.18142578 125.97873047 -2.38671875 125.95703125 C-18.13197589 125.26759395 -32.34376543 118.69476881 -43.16015625 107.1484375 C-52.58430173 96.1435967 -59 82.72476377 -59 68 C-60.65 68 -62.3 68 -64 68 C-64 66.68 -64 65.36 -64 64 C-62.35 64 -60.7 64 -59 64 C-59.061875 63.071875 -59.12375 62.14375 -59.1875 61.1875 C-59.04850579 47.23248094 -50.93831253 31.88809314 -41.3359375 22.10546875 C-29.13465055 11.1079877 -16.12407861 6.20050906 0 5 C0 3.35 0 1.7 0 0 Z M-26 31 C-26.886875 31.61875 -27.77375 32.2375 -28.6875 32.875 C-37.97105067 41.40583035 -42.45005161 52.53450323 -43 65 C-37.39 65 -31.78 65 -26 65 C-26 65.66 -26 66.32 -26 67 C-31.61 67 -37.22 67 -43 67 C-42.08170347 80.77444798 -37.61157813 90.59660178 -27.71484375 100.22265625 C-19.50648007 107.3632653 -10.88160878 111 0 111 C0 105.06 0 99.12 0 93 C0.66 93 1.32 93 2 93 C2 98.94 2 104.88 2 111 C15.53738267 110.70570907 24.93578399 106.91644355 34.7421875 97.47265625 C42.73695485 88.71714114 47 78.96310279 47 67 C41.06 67 35.12 67 29 67 C29 66.34 29 65.68 29 65 C34.94 65 40.88 65 47 65 C46.32639929 51.69638596 41.54751624 41.44095914 32 32 C23.12165438 24.73432262 13.32717189 21.65664765 2 21 C2 26.61 2 32.22 2 38 C1.34 38 0.68 38 0 38 C0 32.39 0 26.78 0 21 C-9.75890421 21 -18.40215986 25.14566423 -26 31 Z " fill="#2D2D2E" transform="translate(658,296)"/>
<path d="M0 0 C49.54353234 0 49.54353234 0 59.30859375 8.1953125 C64.50447026 13.73918074 66.31416772 19.47458684 66.625 27 C66.3076629 34.69124925 64.36513057 40.41776423 59.0625 46.0625 C55.64869993 49.16595461 52.08586472 51.82938437 48 54 C48.70640625 54.65097656 49.4128125 55.30195313 50.140625 55.97265625 C53.57501606 59.41308527 56.11036277 63.37572597 58.75 67.4375 C59.26788086 68.22576172 59.78576172 69.01402344 60.31933594 69.82617188 C61.37464596 71.43543848 62.42707275 73.04659962 63.4765625 74.65966797 C64.90391711 76.85239574 66.34125721 79.03821632 67.78125 81.22265625 C68.60485141 82.48132304 69.42780839 83.74041184 70.25 85 C70.6325293 85.58064209 71.01505859 86.16128418 71.40917969 86.75952148 C74 90.76874927 74 90.76874927 74 93 C70.91674642 93.0582253 67.83363495 93.09367134 64.75 93.125 C63.44095703 93.15013672 63.44095703 93.15013672 62.10546875 93.17578125 C61.26113281 93.18222656 60.41679687 93.18867188 59.546875 93.1953125 C58.77182617 93.20578613 57.99677734 93.21625977 57.19824219 93.22705078 C54.57128939 92.95571958 53.18442806 92.50350344 51 91 C49.140625 88.48144531 49.140625 88.48144531 47.25 85.328125 C46.91000977 84.76808777 46.57001953 84.20805054 46.21972656 83.63104248 C45.13685083 81.84296754 44.06812489 80.04691768 43 78.25 C41.92888029 76.46931181 40.85492185 74.6903646 39.78027344 72.9118042 C38.80200176 71.28936845 37.83049509 69.66285928 36.859375 68.03613281 C33.75625277 62.19016169 33.75625277 62.19016169 29 58 C26.03 57.67 23.06 57.34 20 57 C20 68.88 20 80.76 20 93 C13.4 93 6.8 93 0 93 C0 62.31 0 31.62 0 0 Z " fill="#EFEFED" transform="translate(158,312)"/>
<path d="M0 0 C14 0 14 0 17.421875 2.38671875 C18.6328125 3.96069336 18.6328125 3.96069336 19.75 5.6875 C20.18570313 6.27474854 20.62140625 6.86199707 21.0703125 7.46704102 C21.97213392 8.68798602 22.85575863 9.92258087 23.72070312 11.16992188 C25.32277521 13.46174103 27.03507286 15.65303647 28.76049805 17.85253906 C30.01251019 19.45349688 31.24457711 21.06812944 32.47265625 22.6875 C35.0920809 26.13233492 37.75975392 29.53789379 40.4375 32.9375 C40.8900415 33.51226074 41.34258301 34.08702148 41.80883789 34.67919922 C42.73176686 35.8510428 43.65486395 37.02275398 44.578125 38.19433594 C46.05379851 40.06831968 47.52722477 41.94405028 49 43.8203125 C49.73778687 44.76015991 49.73778687 44.76015991 50.49047852 45.71899414 C51.42596699 46.91080677 52.36135783 48.10269603 53.29663086 49.29467773 C55.84802272 52.54352389 58.41928662 55.77410828 61 59 C61.33 39.53 61.66 20.06 62 0 C67.61 0 73.22 0 79 0 C79 30.69 79 61.38 79 93 C66 93 66 93 63.0625 90.953125 C62.381875 89.97859375 61.70125 89.0040625 61 88 C60.04910248 86.86352846 59.09017753 85.73374415 58.125 84.609375 C57.07971446 83.32585537 56.03823138 82.03923237 55 80.75 C54.43603516 80.05326172 53.87207031 79.35652344 53.29101562 78.63867188 C48.7216496 72.96373227 44.29334166 67.18792462 39.89453125 61.38037109 C35.52253766 55.62823546 31.00289948 50.00854503 26.40039062 44.43945312 C25.89701172 43.82779297 25.39363281 43.21613281 24.875 42.5859375 C24.43929687 42.0604834 24.00359375 41.5350293 23.5546875 40.99365234 C21.27349959 38.06837275 19.15615704 35.01861985 17 32 C16.67 52.13 16.34 72.26 16 93 C10.72 93 5.44 93 0 93 C0 62.31 0 31.62 0 0 Z " fill="#0F4B80" transform="translate(503,312)"/>
<path d="M0 0 C19.8 0 39.6 0 60 0 C60 4.95 60 9.9 60 15 C46.8 15 33.6 15 20 15 C20 22.92 20 30.84 20 39 C30.23 39 40.46 39 51 39 C51 43.62 51 48.24 51 53 C40.77 53 30.54 53 20 53 C20 60.92 20 68.84 20 77 C33.2 77 46.4 77 60 77 C60 82.28 60 87.56 60 93 C40.2 93 20.4 93 0 93 C0 62.31 0 31.62 0 0 Z " fill="#0F4A7E" transform="translate(241,312)"/>
<path d="M0 0 C-4.93717492 10.16609199 -4.93717492 10.16609199 -9.9375 12.1875 C-13.9473243 11.94200055 -15.75810956 10.31563603 -19 8 C-25.87452505 5.25018998 -33.66575878 4.69304087 -40.78515625 6.83984375 C-48.35342137 10.23015256 -52.73017009 15.40603283 -55.875 23 C-58.86947885 33.36412442 -58.11558449 45.4996288 -53 55 C-49.48076537 60.55997423 -45.13169994 63.71679115 -39 66 C-36.01789106 66.5690255 -33.15576434 66.66625036 -30.125 66.625 C-29.33778564 66.62314697 -28.55057129 66.62129395 -27.73950195 66.61938477 C-21.77175692 66.42683717 -17.76830921 65.01060904 -13.04296875 61.21484375 C-11 60 -11 60 -8.4765625 60.09375 C-5.62050649 61.13886829 -4.24510992 62.34350891 -2.1875 64.5625 C-1.58292969 65.20316406 -0.97835937 65.84382813 -0.35546875 66.50390625 C0.09183594 66.99761719 0.53914063 67.49132812 1 68 C-2.56740097 75.89924501 -9.39962868 78.91621463 -17.1328125 82.01953125 C-28.86304975 86.03082491 -42.55891803 84.99649505 -53.72265625 79.7109375 C-66.2584979 72.63943708 -72.86166096 62.57131774 -77 49 C-80.36858342 35.50335783 -77.94284609 21.70170733 -71.25 9.6875 C-64.58503668 -0.50791418 -55.17033512 -7.88376882 -43.10546875 -10.66796875 C-26.56404728 -12.4365484 -13.61566674 -10.23813701 0 0 Z " fill="#0F4B7F" transform="translate(387,322)"/>
<path d="M0 0 C6.80154796 5.003996 10.20692052 10.46618659 12.1875 18.609375 C13.59213114 28.78753248 13.40679135 39.2738602 8.03125 48.25 C3.70216853 53.78975679 -1.04750349 56.77327824 -7.8125 58.609375 C-15.87798034 59.40338602 -24.03414316 59.89983711 -30.98828125 55.14453125 C-37.84747329 49.37223473 -42.00455415 42.70230735 -43.04003906 33.61181641 C-43.82708258 22.76893067 -42.90184514 13.54209159 -36 4.734375 C-26.88808434 -5.04651674 -11.44544112 -6.70160697 0 0 Z " fill="#292A2A" transform="translate(455.8125,330.390625)"/>
<path d="M0 0 C1.32 0 2.64 0 4 0 C4.21503174 0.52727188 4.43006348 1.05454376 4.65161133 1.59779358 C6.97933779 7.3052967 9.30774504 13.01252181 11.63635254 18.71966553 C12.99863731 22.05915951 14.36018222 25.3989545 15.72167969 28.73876953 C20.08836147 39.44611253 24.46654502 50.14826152 28.890625 60.83203125 C29.63678972 62.63725908 30.38288548 64.44251541 31.12890625 66.24780273 C32.18355635 68.7997566 33.23995736 71.35090436 34.30224609 73.89968872 C35.2737642 76.23074615 36.23905479 78.56429218 37.203125 80.8984375 C37.48963928 81.58053787 37.77615356 82.26263824 38.0713501 82.96540833 C39.24428338 85.8197532 40 87.87970966 40 91 C38.17480469 90.87084961 38.17480469 90.87084961 36 90 C34.53613281 87.43969727 34.53613281 87.43969727 33.203125 84.06640625 C32.71972656 82.86048828 32.23632812 81.65457031 31.73828125 80.41210938 C31.24216322 79.12891564 30.74606975 77.8457124 30.25 76.5625 C29.73962073 75.28266815 29.22791707 74.00336359 28.71484375 72.72460938 C25 63.3473825 25 63.3473825 25 61 C9.82 61 -5.36 61 -21 61 C-21.99 63.97 -22.98 66.94 -24 70 C-25.25412397 73.5235344 -26.58718643 77.01233294 -27.9375 80.5 C-28.27201172 81.40492188 -28.60652344 82.30984375 -28.95117188 83.2421875 C-29.28568359 84.10070312 -29.62019531 84.95921875 -29.96484375 85.84375 C-30.2599585 86.61912109 -30.55507324 87.39449219 -30.85913086 88.19335938 C-32 90 -32 90 -34.12719727 90.75976562 C-34.74522217 90.83904297 -35.36324707 90.91832031 -36 91 C-35.40348851 86.37714537 -34.14737344 82.54457718 -32.32421875 78.26171875 C-32.04669769 77.60349625 -31.76917664 76.94527374 -31.48324585 76.2671051 C-30.87631573 74.82890123 -30.26656234 73.39188628 -29.65432739 71.95593262 C-27.96657509 67.9960196 -26.30078835 64.02686789 -24.6328125 60.05859375 C-24.27141678 59.20012848 -23.91002106 58.34166321 -23.53767395 57.45718384 C-18.62247056 45.7585753 -13.84877103 34.00178369 -9.0625 22.25 C-8.15912711 20.03343553 -7.25572603 17.81688254 -6.35229492 15.6003418 C-4.23348778 10.40078736 -2.1160964 5.2006582 0 0 Z " fill="#2D2D2D" transform="translate(1081,314)"/>
<path d="M0 0 C1.32 0 2.64 0 4 0 C4.21503174 0.52727188 4.43006348 1.05454376 4.65161133 1.59779358 C6.97933779 7.3052967 9.30774504 13.01252181 11.63635254 18.71966553 C12.99863731 22.05915951 14.36018222 25.3989545 15.72167969 28.73876953 C20.08836147 39.44611253 24.46654502 50.14826152 28.890625 60.83203125 C29.63678972 62.63725908 30.38288548 64.44251541 31.12890625 66.24780273 C32.18355635 68.7997566 33.23995736 71.35090436 34.30224609 73.89968872 C35.2737642 76.23074615 36.23905479 78.56429218 37.203125 80.8984375 C37.48963928 81.58053787 37.77615356 82.26263824 38.0713501 82.96540833 C39.24428338 85.8197532 40 87.87970966 40 91 C38.17480469 90.87084961 38.17480469 90.87084961 36 90 C34.53613281 87.43969727 34.53613281 87.43969727 33.203125 84.06640625 C32.71972656 82.86048828 32.23632812 81.65457031 31.73828125 80.41210938 C31.24216322 79.12891564 30.74606975 77.8457124 30.25 76.5625 C29.73962073 75.28266815 29.22791707 74.00336359 28.71484375 72.72460938 C25 63.3473825 25 63.3473825 25 61 C9.82 61 -5.36 61 -21 61 C-21.99 63.97 -22.98 66.94 -24 70 C-25.25412397 73.5235344 -26.58718643 77.01233294 -27.9375 80.5 C-28.27201172 81.40492188 -28.60652344 82.30984375 -28.95117188 83.2421875 C-29.28568359 84.10070312 -29.62019531 84.95921875 -29.96484375 85.84375 C-30.2599585 86.61912109 -30.55507324 87.39449219 -30.85913086 88.19335938 C-32 90 -32 90 -34.12719727 90.75976562 C-34.74522217 90.83904297 -35.36324707 90.91832031 -36 91 C-35.40348851 86.37714537 -34.14737344 82.54457718 -32.32421875 78.26171875 C-32.04669769 77.60349625 -31.76917664 76.94527374 -31.48324585 76.2671051 C-30.87631573 74.82890123 -30.26656234 73.39188628 -29.65432739 71.95593262 C-27.96657509 67.9960196 -26.30078835 64.02686789 -24.6328125 60.05859375 C-24.27141678 59.20012848 -23.91002106 58.34166321 -23.53767395 57.45718384 C-18.62247056 45.7585753 -13.84877103 34.00178369 -9.0625 22.25 C-8.15912711 20.03343553 -7.25572603 17.81688254 -6.35229492 15.6003418 C-4.23348778 10.40078736 -2.1160964 5.2006582 0 0 Z " fill="#2D2D2D" transform="translate(875,314)"/>
<path d="M0 0 C1.32 0 2.64 0 4 0 C4 1.65 4 3.3 4 5 C4.97839844 5.09796875 5.95679688 5.1959375 6.96484375 5.296875 C14.58374872 6.16589464 21.2423709 7.19412339 28 11 C28.79664063 11.42152344 29.59328125 11.84304688 30.4140625 12.27734375 C45.85484284 20.90601512 55.71611157 33.63112422 60.75 50.515625 C61.86940007 55.08650861 62.19983502 59.30387693 62 64 C63.98 64 65.96 64 68 64 C68 65.32 68 66.64 68 68 C66.02 68 64.04 68 62 68 C61.98582031 68.71542969 61.97164062 69.43085938 61.95703125 70.16796875 C61.19580199 86.07148821 53.93636786 100.03152864 42.44921875 110.93359375 C31.64436254 120.04965266 18.3333891 126.30442596 4 126 C4 127.98 4 129.96 4 132 C2.68 132 1.36 132 0 132 C0 130.02 0 128.04 0 126 C-1.18142578 125.97873047 -1.18142578 125.97873047 -2.38671875 125.95703125 C-18.13197589 125.26759395 -32.34376543 118.69476881 -43.16015625 107.1484375 C-52.58430173 96.1435967 -59 82.72476377 -59 68 C-60.65 68 -62.3 68 -64 68 C-64 66.68 -64 65.36 -64 64 C-62.35 64 -60.7 64 -59 64 C-59.061875 63.071875 -59.12375 62.14375 -59.1875 61.1875 C-59.04850579 47.23248094 -50.93831253 31.88809314 -41.3359375 22.10546875 C-29.13465055 11.1079877 -16.12407861 6.20050906 0 5 C0 3.35 0 1.7 0 0 Z M-41.328125 27.90625 C-52.36895062 41.73307835 -56.65884837 56.97690841 -54.72265625 74.51171875 C-54.28898545 76.74615591 -53.70452746 78.83504582 -53 81 C-52.67 82.02867187 -52.34 83.05734375 -52 84.1171875 C-49.4031289 91.51485321 -46.27027746 97.21151534 -41 103 C-40.40445313 103.68707031 -39.80890625 104.37414062 -39.1953125 105.08203125 C-29.98708883 115.07352705 -17.09212984 121.30516939 -3.5390625 122.23828125 C11.27310659 122.51915072 23.56478749 119.52915941 36 111 C36.65355469 110.56171875 37.30710937 110.1234375 37.98046875 109.671875 C48.57809794 101.62058692 55.4387253 87.69061451 57.68359375 74.828125 C59.38401567 59.62929204 57.19807259 44.88759823 47.79443359 32.39892578 C37.75147384 20.06448431 24.15369078 10.82541707 8 9 C-11.26625712 7.560567 -28.11168778 13.67316376 -41.328125 27.90625 Z " fill="#E8E8E6" transform="translate(658,296)"/>
<path d="M0 0 C4 1 4 1 5.74487305 3.22363281 C6.32793213 4.20686523 6.91099121 5.19009766 7.51171875 6.203125 C8.17913086 7.31526367 8.84654297 8.42740234 9.53417969 9.57324219 C10.25224277 10.79865845 10.97000869 12.02424887 11.6875 13.25 C12.43420301 14.50483831 13.18194037 15.75906164 13.93066406 17.01269531 C16.30480111 20.99813069 18.65316623 24.9984475 21 29 C21.79164693 30.34646148 22.58347552 31.69281618 23.37548828 33.0390625 C26.38437078 38.15573302 29.39211298 43.27300318 32.37768555 48.40332031 C35.82943271 54.32969178 39.32151155 60.21137089 43 66 C45.61712286 63.63728605 47.17321749 61.16564147 48.86328125 58.08203125 C49.4135498 57.08655273 49.96381836 56.09107422 50.53076172 55.06542969 C51.11873535 53.99196289 51.70670898 52.91849609 52.3125 51.8125 C53.56988524 49.54201019 54.82904794 47.27250396 56.08984375 45.00390625 C56.57297028 44.13401566 56.57297028 44.13401566 57.06585693 43.24655151 C62.06271434 34.26884882 67.26397104 25.40949378 72.49023438 16.56396484 C73.84434624 14.26433956 75.18220794 11.95618759 76.515625 9.64453125 C77.21786884 8.45000237 77.92090528 7.25593884 78.625 6.0625 C79.47964844 4.59490234 79.47964844 4.59490234 80.3515625 3.09765625 C82 1 82 1 86 0 C86 30.03 86 60.06 86 91 C84.68 91 83.36 91 82 91 C81.67 63.61 81.34 36.22 81 8 C76.38 16.58 71.76 25.16 67 34 C63.46530195 40.50944393 59.92791458 47.01499277 56.36083984 53.50634766 C55.02278535 55.95824729 53.70678055 58.42093173 52.39453125 60.88671875 C51.59669109 62.36216141 50.79853393 63.83743271 50 65.3125 C49.65026123 65.98297363 49.30052246 66.65344727 48.94018555 67.34423828 C46.47416277 71.84876784 46.47416277 71.84876784 43.87890625 72.67651367 C43.25886719 72.78326416 42.63882813 72.89001465 42 73 C37.62514219 65.81838697 33.46011636 58.53713159 29.375 51.1875 C24.30133948 42.09055612 19.18256509 33.02184125 13.99560547 23.98901367 C13.31522217 22.80335815 13.31522217 22.80335815 12.62109375 21.59375 C12.2336499 20.92021484 11.84620605 20.24667969 11.44702148 19.55273438 C9.27231863 15.71627529 7.1416661 11.85499898 5 8 C4.67 35.39 4.34 62.78 4 91 C2.68 91 1.36 91 0 91 C0 60.97 0 30.94 0 0 Z " fill="#E6E6E4" transform="translate(737,314)"/>
<path d="M0 0 C10.83211246 7.97959404 18.08755102 18.28101573 21.26953125 31.359375 C22.59088373 46.92387755 19.35028788 60.84733935 9.515625 73.05078125 C2.93509279 79.81442392 -5.45042669 85.3293658 -14.73046875 87.359375 C-15.49359375 87.53855469 -16.25671875 87.71773438 -17.04296875 87.90234375 C-29.72834062 90.05959449 -42.32608335 88.26564893 -53.10546875 81.046875 C-64.89751866 72.04064917 -72.21044819 61.12268127 -74.73046875 46.359375 C-75.8792862 31.13754374 -71.66579777 19.34547086 -62.04296875 7.671875 C-55.00462775 0.09727944 -46.72987232 -4.32347266 -36.73046875 -6.640625 C-36.10527344 -6.81980469 -35.48007812 -6.99898438 -34.8359375 -7.18359375 C-22.436011 -9.875229 -10.63236999 -6.38854849 0 0 Z M-54.73046875 5.359375 C-55.61734375 5.978125 -56.50421875 6.596875 -57.41796875 7.234375 C-66.70151942 15.76520535 -71.18052036 26.89387823 -71.73046875 39.359375 C-66.12046875 39.359375 -60.51046875 39.359375 -54.73046875 39.359375 C-54.73046875 40.019375 -54.73046875 40.679375 -54.73046875 41.359375 C-60.34046875 41.359375 -65.95046875 41.359375 -71.73046875 41.359375 C-70.81217222 55.13382298 -66.34204688 64.95597678 -56.4453125 74.58203125 C-48.23694882 81.7226403 -39.61207753 85.359375 -28.73046875 85.359375 C-28.73046875 79.419375 -28.73046875 73.479375 -28.73046875 67.359375 C-28.07046875 67.359375 -27.41046875 67.359375 -26.73046875 67.359375 C-26.73046875 73.299375 -26.73046875 79.239375 -26.73046875 85.359375 C-13.19308608 85.06508407 -3.79468476 81.27581855 6.01171875 71.83203125 C14.0064861 63.07651614 18.26953125 53.32247779 18.26953125 41.359375 C12.32953125 41.359375 6.38953125 41.359375 0.26953125 41.359375 C0.26953125 40.699375 0.26953125 40.039375 0.26953125 39.359375 C6.20953125 39.359375 12.14953125 39.359375 18.26953125 39.359375 C17.59593054 26.05576096 12.81704749 15.80033414 3.26953125 6.359375 C-5.60881437 -0.90630238 -15.40329686 -3.98397735 -26.73046875 -4.640625 C-26.73046875 0.969375 -26.73046875 6.579375 -26.73046875 12.359375 C-27.39046875 12.359375 -28.05046875 12.359375 -28.73046875 12.359375 C-28.73046875 6.749375 -28.73046875 1.139375 -28.73046875 -4.640625 C-38.48937296 -4.640625 -47.13262861 -0.49496077 -54.73046875 5.359375 Z " fill="#114978" transform="translate(686.73046875,321.640625)"/>
<path d="M0 0 C1.32 0 2.64 0 4 0 C4.21503174 0.52727188 4.43006348 1.05454376 4.65161133 1.59779358 C6.97933779 7.3052967 9.30774504 13.01252181 11.63635254 18.71966553 C12.99863731 22.05915951 14.36018222 25.3989545 15.72167969 28.73876953 C20.08836147 39.44611253 24.46654502 50.14826152 28.890625 60.83203125 C29.63678972 62.63725908 30.38288548 64.44251541 31.12890625 66.24780273 C32.18355635 68.7997566 33.23995736 71.35090436 34.30224609 73.89968872 C35.2737642 76.23074615 36.23905479 78.56429218 37.203125 80.8984375 C37.48963928 81.58053787 37.77615356 82.26263824 38.0713501 82.96540833 C39.24428338 85.8197532 40 87.87970966 40 91 C38.17480469 90.87084961 38.17480469 90.87084961 36 90 C34.53613281 87.43969727 34.53613281 87.43969727 33.203125 84.06640625 C32.71972656 82.86048828 32.23632812 81.65457031 31.73828125 80.41210938 C31.24216322 79.12891564 30.74606975 77.8457124 30.25 76.5625 C29.73962073 75.28266815 29.22791707 74.00336359 28.71484375 72.72460938 C25 63.3473825 25 63.3473825 25 61 C9.82 61 -5.36 61 -21 61 C-21.99 63.97 -22.98 66.94 -24 70 C-25.25412397 73.5235344 -26.58718643 77.01233294 -27.9375 80.5 C-28.27201172 81.40492188 -28.60652344 82.30984375 -28.95117188 83.2421875 C-29.28568359 84.10070312 -29.62019531 84.95921875 -29.96484375 85.84375 C-30.2599585 86.61912109 -30.55507324 87.39449219 -30.85913086 88.19335938 C-32 90 -32 90 -34.12719727 90.75976562 C-34.74522217 90.83904297 -35.36324707 90.91832031 -36 91 C-35.40348851 86.37714537 -34.14737344 82.54457718 -32.32421875 78.26171875 C-32.04669769 77.60349625 -31.76917664 76.94527374 -31.48324585 76.2671051 C-30.87631573 74.82890123 -30.26656234 73.39188628 -29.65432739 71.95593262 C-27.96657509 67.9960196 -26.30078835 64.02686789 -24.6328125 60.05859375 C-24.27141678 59.20012848 -23.91002106 58.34166321 -23.53767395 57.45718384 C-18.62247056 45.7585753 -13.84877103 34.00178369 -9.0625 22.25 C-8.15912711 20.03343553 -7.25572603 17.81688254 -6.35229492 15.6003418 C-4.23348778 10.40078736 -2.1160964 5.2006582 0 0 Z M1 8 C-1.85333315 14.65475734 -4.70108984 21.3118801 -7.54492188 27.97070312 C-8.51368004 30.23720713 -9.48372898 32.50315988 -10.45507812 34.76855469 C-11.8484259 38.01875164 -13.237169 41.27088177 -14.625 44.5234375 C-15.28121338 46.05005508 -15.28121338 46.05005508 -15.95068359 47.60751343 C-16.35109863 48.54833771 -16.75151367 49.48916199 -17.1640625 50.45849609 C-17.51936035 51.28900482 -17.8746582 52.11951355 -18.24072266 52.97518921 C-19.11703754 54.95169616 -19.11703754 54.95169616 -19 57 C-5.14 57 8.72 57 23 57 C20.72812573 50.05107281 20.72812573 50.05107281 18.09887695 43.30639648 C17.75875076 42.50624619 17.41862457 41.70609589 17.06819153 40.88169861 C16.71182114 40.05319901 16.35545074 39.2246994 15.98828125 38.37109375 C15.42864937 37.05843285 15.42864937 37.05843285 14.85771179 35.71925354 C13.67928293 32.95724189 12.49598183 30.19734973 11.3125 27.4375 C10.50683681 25.55157095 9.70149521 23.66550448 8.89648438 21.77929688 C6.93470134 17.18460197 4.96854949 12.59179972 3 8 C2.34 8 1.68 8 1 8 Z " fill="#E5E5E4" transform="translate(1081,314)"/>
<path d="M0 0 C1.32 0 2.64 0 4 0 C4.21503174 0.52727188 4.43006348 1.05454376 4.65161133 1.59779358 C6.97933779 7.3052967 9.30774504 13.01252181 11.63635254 18.71966553 C12.99863731 22.05915951 14.36018222 25.3989545 15.72167969 28.73876953 C20.08836147 39.44611253 24.46654502 50.14826152 28.890625 60.83203125 C29.63678972 62.63725908 30.38288548 64.44251541 31.12890625 66.24780273 C32.18355635 68.7997566 33.23995736 71.35090436 34.30224609 73.89968872 C35.2737642 76.23074615 36.23905479 78.56429218 37.203125 80.8984375 C37.48963928 81.58053787 37.77615356 82.26263824 38.0713501 82.96540833 C39.24428338 85.8197532 40 87.87970966 40 91 C38.17480469 90.87084961 38.17480469 90.87084961 36 90 C34.53613281 87.43969727 34.53613281 87.43969727 33.203125 84.06640625 C32.71972656 82.86048828 32.23632812 81.65457031 31.73828125 80.41210938 C31.24216322 79.12891564 30.74606975 77.8457124 30.25 76.5625 C29.73962073 75.28266815 29.22791707 74.00336359 28.71484375 72.72460938 C25 63.3473825 25 63.3473825 25 61 C9.82 61 -5.36 61 -21 61 C-21.99 63.97 -22.98 66.94 -24 70 C-25.25412397 73.5235344 -26.58718643 77.01233294 -27.9375 80.5 C-28.27201172 81.40492188 -28.60652344 82.30984375 -28.95117188 83.2421875 C-29.28568359 84.10070312 -29.62019531 84.95921875 -29.96484375 85.84375 C-30.2599585 86.61912109 -30.55507324 87.39449219 -30.85913086 88.19335938 C-32 90 -32 90 -34.12719727 90.75976562 C-34.74522217 90.83904297 -35.36324707 90.91832031 -36 91 C-35.40348851 86.37714537 -34.14737344 82.54457718 -32.32421875 78.26171875 C-32.04669769 77.60349625 -31.76917664 76.94527374 -31.48324585 76.2671051 C-30.87631573 74.82890123 -30.26656234 73.39188628 -29.65432739 71.95593262 C-27.96657509 67.9960196 -26.30078835 64.02686789 -24.6328125 60.05859375 C-24.27141678 59.20012848 -23.91002106 58.34166321 -23.53767395 57.45718384 C-18.62247056 45.7585753 -13.84877103 34.00178369 -9.0625 22.25 C-8.15912711 20.03343553 -7.25572603 17.81688254 -6.35229492 15.6003418 C-4.23348778 10.40078736 -2.1160964 5.2006582 0 0 Z M1 8 C-1.85333315 14.65475734 -4.70108984 21.3118801 -7.54492188 27.97070312 C-8.51368004 30.23720713 -9.48372898 32.50315988 -10.45507812 34.76855469 C-11.8484259 38.01875164 -13.237169 41.27088177 -14.625 44.5234375 C-15.28121338 46.05005508 -15.28121338 46.05005508 -15.95068359 47.60751343 C-16.35109863 48.54833771 -16.75151367 49.48916199 -17.1640625 50.45849609 C-17.51936035 51.28900482 -17.8746582 52.11951355 -18.24072266 52.97518921 C-19.11703754 54.95169616 -19.11703754 54.95169616 -19 57 C-5.14 57 8.72 57 23 57 C20.72812573 50.05107281 20.72812573 50.05107281 18.09887695 43.30639648 C17.75875076 42.50624619 17.41862457 41.70609589 17.06819153 40.88169861 C16.71182114 40.05319901 16.35545074 39.2246994 15.98828125 38.37109375 C15.42864937 37.05843285 15.42864937 37.05843285 14.85771179 35.71925354 C13.67928293 32.95724189 12.49598183 30.19734973 11.3125 27.4375 C10.50683681 25.55157095 9.70149521 23.66550448 8.89648438 21.77929688 C6.93470134 17.18460197 4.96854949 12.59179972 3 8 C2.34 8 1.68 8 1 8 Z " fill="#E5E5E4" transform="translate(875,314)"/>
<path d="M0 0 C4.19908213 1.04977053 4.50955608 1.1400941 6.77734375 4.40234375 C7.53736694 5.47657593 7.53736694 5.47657593 8.31274414 6.57250977 C8.84891357 7.35295654 9.38508301 8.13340332 9.9375 8.9375 C11.10123904 10.59137348 12.26531077 12.24501291 13.4296875 13.8984375 C14.02233398 14.74760742 14.61498047 15.59677734 15.22558594 16.47167969 C17.95992254 20.36777075 20.76392433 24.21245101 23.5625 28.0625 C29.27159061 35.95593832 34.89952361 43.90486295 40.50292969 51.87353516 C42.03286848 54.04668696 43.56661524 56.21710207 45.1015625 58.38671875 C45.618396 59.11753662 46.13522949 59.84835449 46.66772461 60.60131836 C47.6290743 61.96048923 48.59077993 63.31940847 49.55297852 64.67797852 C54.08256426 71.08712765 58.53187709 77.54604468 63 84 C63.33 56.28 63.66 28.56 64 0 C64.99 0 65.98 0 67 0 C67 29.7 67 59.4 67 90 C66.01 90 65.02 90 64 90 C62.65649414 88.50976562 62.65649414 88.50976562 61.28515625 86.40625 C60.77009521 85.6313623 60.25503418 84.85647461 59.72436523 84.05810547 C59.17594971 83.21393066 58.62753418 82.36975586 58.0625 81.5 C56.89099796 79.74020198 55.71646408 77.98241888 54.5390625 76.2265625 C53.94641602 75.34258789 53.35376953 74.45861328 52.74316406 73.54785156 C50.25073555 69.90485661 47.61443233 66.38359201 44.9375 62.875 C40.34973006 56.84075797 35.92627369 50.71220642 31.57666016 44.50439453 C27.37921549 38.51800961 23.10844248 32.58735532 18.80297852 26.67822266 C14.09058462 20.18824608 9.57017046 13.60135733 5 7 C4.67 34.72 4.34 62.44 4 91 C2.68 91 1.36 91 0 91 C0 60.97 0 30.94 0 0 Z " fill="#E7E7E5" transform="translate(931,314)"/>
<path d="M0 0 C2.866875 -0.061875 5.73375 -0.12375 8.6875 -0.1875 C10.02880981 -0.22846802 10.02880981 -0.22846802 11.3972168 -0.27026367 C16.12508718 -0.31957307 19.17395948 -0.06772618 23 3 C23.7528125 3.60070312 24.505625 4.20140625 25.28125 4.8203125 C28.09332951 8.3865406 27.54543331 11.70793194 27.375 16.0859375 C26.76615883 20.81714075 25.13082408 23.2580924 21.48046875 26.2421875 C14.96158837 30.36087009 7.38829185 29.26386757 0 29 C0 19.43 0 9.86 0 0 Z " fill="#2C2C2C" transform="translate(178,327)"/>
<path d="M0 0 C1.32 0.33 2.64 0.66 4 1 C5.75 4.0625 5.75 4.0625 7 7 C6.01 7.495 6.01 7.495 5 8 C4.67 35.39 4.34 62.78 4 91 C2.68 91 1.36 91 0 91 C0 60.97 0 30.94 0 0 Z " fill="#E7E7E5" transform="translate(737,314)"/>
<path d="M0 0 C0.99 0 1.98 0 3 0 C3 30.03 3 60.06 3 91 C1.68 91 0.36 91 -1 91 C-1.01030746 89.95430344 -1.02061493 88.90860687 -1.03123474 87.83122253 C-1.12889864 77.98699758 -1.23162609 68.14283682 -1.33933926 58.29871655 C-1.39455499 53.23749669 -1.4479729 48.17627104 -1.49731445 43.11499023 C-1.54497782 38.23258188 -1.59732145 33.35024428 -1.65294075 28.4679203 C-1.67335534 26.60318064 -1.69206991 24.73842157 -1.70907402 22.87364769 C-1.73313778 20.26619822 -1.76318975 17.65888255 -1.79467773 15.05151367 C-1.8004332 14.27683746 -1.80618866 13.50216125 -1.81211853 12.70401001 C-1.85561826 9.54484182 -1.99367774 7.01896679 -3 4 C-1.75 1.8125 -1.75 1.8125 0 0 Z " fill="#DBDBD9" transform="translate(820,314)"/>
<path d="M0 0 C1.32 0 2.64 0 4 0 C4 30.03 4 60.06 4 91 C2.68 91 1.36 91 0 91 C0 60.97 0 30.94 0 0 Z " fill="#E7E7E5" transform="translate(1025,314)"/>
<path d="M0 0 C0.99 0 1.98 0 3 0 C3 29.7 3 59.4 3 90 C2.01 90 1.02 90 0 90 C-1.157833 85.86831046 -1.09154812 81.91077029 -1.02172852 77.65136719 C-1.01212097 76.81197601 -1.00251343 75.97258484 -0.99261475 75.10775757 C-0.95967281 72.33737676 -0.91932215 69.56715602 -0.87890625 66.796875 C-0.85460044 64.8744564 -0.83075711 62.9520319 -0.80735779 61.02960205 C-0.74456275 55.97266922 -0.67548308 50.91584098 -0.60510254 45.85900879 C-0.53437776 40.69772093 -0.46958559 35.53635898 -0.40429688 30.375 C-0.27534356 20.24991858 -0.13975204 10.12493772 0 0 Z " fill="#F4F4F2" transform="translate(995,314)"/>
<path d="M0 0 C0.66 0 1.32 0 2 0 C3.22998047 1.49023438 3.22998047 1.49023438 4.6171875 3.59375 C5.13539063 4.36847656 5.65359375 5.14320313 6.1875 5.94140625 C6.744375 6.78574219 7.30125 7.63007813 7.875 8.5 C12.09655321 14.7948049 16.3945069 20.98010023 21 27 C25.9118265 33.44378493 30.51769407 40.05824832 35.05664062 46.76879883 C39.43923633 53.23154913 43.97394537 59.57177008 48.59936523 65.86279297 C51.95418045 70.45076718 55.05570854 75.13817359 58 80 C57.01 80.495 57.01 80.495 56 81 C54.92685547 79.47246094 54.92685547 79.47246094 53.83203125 77.9140625 C46.30433257 67.21519128 38.67661507 56.59236204 31 46 C23.98391446 36.31905112 16.98803869 26.62748989 10.13256836 16.83178711 C9.67760986 16.18346924 9.22265137 15.53515137 8.75390625 14.8671875 C8.31062988 14.23522461 7.86735352 13.60326172 7.41064453 12.95214844 C5.39361198 10.1608379 3.26133381 7.46049607 1.11694336 4.76611328 C0 3 0 3 0 0 Z " fill="#DADAD8" transform="translate(937,320)"/>
<path d="M0 0 C1.8125 1.1875 1.8125 1.1875 3 3 C3.4334014 5.88934264 3.42525784 7.35092224 1.8125 9.8125 C-0.64907776 11.42525784 -2.11065736 11.4334014 -5 11 C-6.8125 9.8125 -6.8125 9.8125 -8 8 C-8.4334014 5.11065736 -8.42525784 3.64907776 -6.8125 1.1875 C-4.35092224 -0.42525784 -2.88934264 -0.4334014 0 0 Z " fill="#A82D2D" transform="translate(662,356)"/>
<path d="M0 0 C0.66 0 1.32 0 2 0 C3.32861328 1.8359375 3.32861328 1.8359375 4.8203125 4.375 C5.35527344 5.27734375 5.89023437 6.1796875 6.44140625 7.109375 C6.99699219 8.06328125 7.55257812 9.0171875 8.125 10 C8.68832031 10.95390625 9.25164063 11.9078125 9.83203125 12.890625 C11.22797259 15.25662727 12.61691272 17.6264682 14 20 C13.01 20.99 12.02 21.98 11 23 C9.15637057 19.73486809 7.32690521 16.46201438 5.5 13.1875 C4.97535156 12.25873047 4.45070313 11.32996094 3.91015625 10.37304688 C3.16572266 9.0340332 3.16572266 9.0340332 2.40625 7.66796875 C1.71499023 6.43469849 1.71499023 6.43469849 1.00976562 5.17651367 C0 3 0 3 0 0 Z " fill="#DEDEDC" transform="translate(743,321)"/>
<path d="M0 0 C0.66 0.99 1.32 1.98 2 3 C-0.64 7.95 -3.28 12.9 -6 18 C-6.99 18 -7.98 18 -9 18 C-7.45614871 13.85967154 -5.48971062 10.06446947 -3.375 6.1875 C-3.05015625 5.59001953 -2.7253125 4.99253906 -2.390625 4.37695312 C-1.59620849 2.91662865 -0.79844624 1.45812509 0 0 Z " fill="#E1E1DF" transform="translate(816,319)"/>
<path d="M0 0 C0.99 0 1.98 0 3 0 C2.5020163 3.73487777 2.12508244 5.81237635 0 9 C-0.66 8.67 -1.32 8.34 -2 8 C-1.47731534 5.23723823 -0.89130413 2.6739124 0 0 Z " fill="#E1E1E0" transform="translate(1062,360)"/>
<path d="M0 0 C0.99 0 1.98 0 3 0 C2.5020163 3.73487777 2.12508244 5.81237635 0 9 C-0.66 8.67 -1.32 8.34 -2 8 C-1.47731534 5.23723823 -0.89130413 2.6739124 0 0 Z " fill="#E1E1E0" transform="translate(856,360)"/>
<path d="M0 0 C0.66 0.99 1.32 1.98 2 3 C1.01 4.98 0.02 6.96 -1 9 C-1.99 9 -2.98 9 -4 9 C-2.80100302 5.9168649 -1.52299523 2.93720508 0 0 Z " fill="#D5D5D4" transform="translate(816,319)"/>
<path d="M0 0 C0.33 0.99 0.66 1.98 1 3 C-0.3125 5.1875 -0.3125 5.1875 -2 7 C-2.66 7 -3.32 7 -4 7 C-3.39816251 4.97954558 -2.72693904 2.97888961 -2 1 C-1.34 0.67 -0.68 0.34 0 0 Z " fill="#EAEAE8" transform="translate(802,346)"/>
</svg>
